<?xml version="1.0" encoding="UTF-8" standalone="no"?>
<svg
   xmlns:dc="http://purl.org/dc/elements/1.1/"
   xmlns:cc="http://creativecommons.org/ns#"
   xmlns:rdf="http://www.w3.org/1999/02/22-rdf-syntax-ns#"
   xmlns:svg="http://www.w3.org/2000/svg"
   xmlns="http://www.w3.org/2000/svg"
   xmlns:sodipodi="http://sodipodi.sourceforge.net/DTD/sodipodi-0.dtd"
   xmlns:inkscape="http://www.inkscape.org/namespaces/inkscape"
   width="100"
   height="21"
   viewBox="0 0 26.458333 5.5562501"
   version="1.1"
   id="svg8"
   inkscape:version="1.0.2-2 (e86c870879, 2021-01-15)"
   sodipodi:docname="Banco Pichincha logo.svg">
  <title
     id="title49">Banco Pichincha logo</title>
  <defs
     id="defs2" />
  <sodipodi:namedview
     id="base"
     pagecolor="#ffffff"
     bordercolor="#666666"
     borderopacity="1.0"
     inkscape:pageopacity="0.0"
     inkscape:pageshadow="2"
     inkscape:zoom="0.99999999"
     inkscape:cx="-28.318267"
     inkscape:cy="95.790131"
     inkscape:document-units="px"
     inkscape:current-layer="layer1"
     inkscape:document-rotation="0"
     showgrid="false"
     units="px"
     showborder="true"
     inkscape:showpageshadow="false"
     inkscape:window-width="1366"
     inkscape:window-height="745"
     inkscape:window-x="-8"
     inkscape:window-y="-8"
     inkscape:window-maximized="1" />
  <metadata
     id="metadata5">
    <rdf:RDF>
      <cc:Work
         rdf:about="">
        <dc:format>image/svg+xml</dc:format>
        <dc:type
           rdf:resource="http://purl.org/dc/dcmitype/StillImage" />
        <dc:title>Banco Pichincha logo</dc:title>
        <dc:date>mayo 2021</dc:date>
        <cc:license
           rdf:resource="http://scripts.sil.org/OFL" />
      </cc:Work>
      <cc:License
         rdf:about="http://scripts.sil.org/OFL">
        <cc:permits
           rdf:resource="http://scripts.sil.org/pub/OFL/Reproduction" />
        <cc:permits
           rdf:resource="http://scripts.sil.org/pub/OFL/Distribution" />
        <cc:permits
           rdf:resource="http://scripts.sil.org/pub/OFL/Embedding" />
        <cc:permits
           rdf:resource="http://scripts.sil.org/pub/OFL/DerivativeWorks" />
        <cc:requires
           rdf:resource="http://scripts.sil.org/pub/OFL/Notice" />
        <cc:requires
           rdf:resource="http://scripts.sil.org/pub/OFL/Attribution" />
        <cc:requires
           rdf:resource="http://scripts.sil.org/pub/OFL/ShareAlike" />
        <cc:requires
           rdf:resource="http://scripts.sil.org/pub/OFL/DerivativeRenaming" />
        <cc:requires
           rdf:resource="http://scripts.sil.org/pub/OFL/BundlingWhenSelling" />
      </cc:License>
    </rdf:RDF>
  </metadata>
  <g
     inkscape:label="Capa 1"
     inkscape:groupmode="layer"
     id="layer1">
    <g
       id="g12"
       transform="matrix(0.14558311,0,0,0.14558311,0.0758351,0.0475298)">
      <g
         id="g10">
        <path
           class="st2"
           d="M 23.6,0.2 H 0 V 25.1 C 0,32 5.6,37.7 12.6,37.7 H 37.5 V 0.2 Z"
           id="path6"
           style="fill:#ffdd00;fill-opacity:1" />
        <path
           id="path4"
           d="m 112.09961,-3.3007812 c -2.4,0 -4.30039,0.7007812 -5.90039,2.3007812 -1.6,1.5 -2.39844,3.5 -2.39844,6 0,2.4 0.79844,4.4003906 2.39844,5.900391 1.6,1.5 3.6,2.199218 6,2.199218 2.7,0 4.80039,-1 6.40039,-3 l -2.19922,-2.4003902 c -1.1,1.5 -2.50078,2.2011718 -4.30078,2.2011718 -1.4,0.1000004 -2.50039,-0.4007812 -3.40039,-1.3007812 -0.9,-0.9 -1.39844,-2.0992188 -1.39844,-3.6992188 0,-1.5 0.49844,-2.6996094 1.39844,-3.5996094 0.9,-0.89999995 2.00078,-1.40039057 3.30078,-1.40039057 1.2,0 2.29922,0.39960937 3.19922,1.09960937 0.7,0.5 1.60117,0.4007813 2.20117,-0.19921875 l 1,-1.1015625 c -1.6,-1.99999995 -3.70078,-2.99999995 -6.30078,-2.99999995 z m 16.30078,0.1015624 c -2.3,0 -4.20078,0.7988282 -5.80078,2.29882818 -1.6,1.5 -2.29883,3.50078122 -2.29883,5.80078122 0,2.4 0.79883,4.3003906 2.29883,5.9003904 1.6,1.5 3.50078,2.298828 5.80078,2.298828 2.3,0 4.19883,-0.798828 5.79883,-2.298828 1.6,-1.5999997 2.40039,-3.5003904 2.40039,-5.9003904 0,-2.3 -0.80039,-4.30078122 -2.40039,-5.80078122 -1.6,-1.59999998 -3.49883,-2.29882818 -5.79883,-2.29882818 z M 54.699219,-3 v 15.800781 h 7.5 c 1.6,0 3.00039,-0.400781 3.90039,-1.300781 1,-0.9 1.5,-2.0003906 1.5,-3.4003906 0.1,-1.3 -0.60039,-2.5 -1.90039,-3.5 1.1,-0.8 1.601562,-1.8992188 1.601562,-3.1992188 0,-2.8 -2.1,-4.4003906 -5.5,-4.4003906 z m 20.5,0 L 69,12.800781 h 3.5 l 1.199219,-3.1015622 h 6.101562 l 1.298828,3.1015622 h 3.5 L 78.800781,-1.9003906 C 78.500781,-2.6003906 77.899219,-3 77.199219,-3 Z m 22.201172,0 V 7.8007812 L 91.5,-2.0996094 c -0.3,-0.5 -0.9,-0.8007812 -1.5,-0.8007812 H 86.900391 V 12.800781 h 3.40039 V 2.1992188 L 96.199219,12 c 0.4,0.5 0.9,0.800781 1.5,0.800781 h 3.000001 V -3 Z M 128.5,0 c 1.4,0 2.50039,0.5 3.40039,1.5 0.8,0.9 1.29883,2.1003906 1.29883,3.4003906 0,1.4 -0.39883,2.5996094 -1.29883,3.5996094 -0.8,1 -2.00039,1.4003906 -3.40039,1.4003906 C 127,9.9003906 125.9,9.4 125,8.5 c -0.9,-1 -1.30078,-2.0996094 -1.30078,-3.5996094 0,-1.4 0.40078,-2.6 1.30078,-3.5 C 125.9,0.40039062 127,0 128.5,0 Z M 58.099609,0.09960937 h 3.09961 c 1.9,0 2.701172,0.50117188 2.701172,1.70117183 0,1.1 -0.89961,1.5996094 -2.59961,1.5996094 H 58.099609 Z M 76.800781,1.5996094 78.699219,6.8007812 H 74.800781 Z M 23.599609,3.3007812 v 5.5996094 h 6.800782 v 6.9003904 h 5.699218 V 3.3007812 Z m 34.5,2.8984376 H 61.5 c 1.9,0 2.800781,0.6011718 2.800781,1.7011718 0,1.3 -1.000781,1.7988282 -2.800781,1.7988282 H 58.099609 Z M 144.40039,18.400391 c -2.4,0 -4.30039,0.698828 -5.90039,2.298828 -1.6,1.5 -2.40039,3.50039 -2.40039,5.90039 0,2.4 0.80039,4.400391 2.40039,5.900391 1.6,1.5 3.6,2.199219 6,2.199219 2.7,0 4.80039,-1 6.40039,-3 l -2.20117,-2.398438 c -1.1,1.5 -2.49883,2.199219 -4.29883,2.199219 -1.4,0.2 -2.50039,-0.299219 -3.40039,-1.199219 -0.9,-0.9 -1.40039,-2.101172 -1.40039,-3.701172 C 139.59961,25.099609 140.1,23.8 141,23 c 0.9,-0.9 2.00078,-1.400391 3.30078,-1.400391 1.2,0 2.29922,0.39961 3.19922,1.09961 0.7,0.5 1.59922,0.400781 2.19922,-0.199219 l 1,-1.099609 c -1.6,-2 -3.69883,-3 -6.29883,-3 z M 84.800781,18.5 c -2.4,0 -4.30039,0.700781 -5.90039,2.300781 -1.6,1.5 -2.400391,3.498438 -2.400391,5.898438 0,2.4 0.800391,4.40039 2.400391,5.90039 1.6,1.5 3.6,2.201172 6,2.201172 2.7,0 4.80039,-1 6.40039,-3 l -2.201172,-2.40039 c -1.1,1.5 -2.498828,2.199218 -4.298828,2.199218 -1.4,0 -2.50039,-0.50039 -3.40039,-1.40039 C 80.500391,29.299219 80,28.1 80,26.5 c 0,-1.5 0.500391,-2.799609 1.400391,-3.599609 0.9,-0.9 1.998828,-1.400391 3.298828,-1.400391 1.2,0 2.301172,0.399609 3.201172,1.099609 0.7,0.5 1.599218,0.400782 2.199218,-0.199218 l 1,-1.09961 C 89.499609,19.500781 87.400781,18.5 84.800781,18.5 Z M 54.699219,18.699219 V 34.5 h 3.40039 v -5 h 3 c 1.8,0 3.3,-0.5 4.5,-1.5 1.1,-1 1.701172,-2.3 1.701172,-4 0,-1.6 -0.601172,-2.900391 -1.701172,-3.900391 -1.1,-0.9 -2.6,-1.40039 -4.5,-1.40039 z m 15.5,0 V 34.5 H 73.5 V 18.699219 Z m 24.201172,0 V 34.5 h 3.40039 V 28 h 6.599609 v 6.5 h 3.29883 V 18.699219 h -1.59961 c -0.9,0 -1.69922,0.801172 -1.69922,1.701172 v 4.5 h -6.599609 v -6.201172 z m 17.499999,0 V 34.5 h 3.29883 V 18.699219 Z m 7.40039,0 V 34.5 h 3.39844 V 23.900391 l 5.90039,9.798828 c 0.3,0.5 0.9,0.800781 1.5,0.800781 h 3 V 18.699219 h -3.29883 V 29.400391 L 123.90039,19.5 c -0.4,-0.4 -0.9,-0.800781 -1.5,-0.800781 z m 34.69922,0 V 34.5 h 3.40039 V 28 H 164 v 6.599609 h 3.30078 v -15.90039 h -1.60156 c -0.9,0 -1.69922,0.801172 -1.69922,1.701172 v 4.5 h -6.59961 v -6.201172 z m 22.19922,0 L 170,34.5 h 3.5 l 1.19922,-3.099609 h 6.10156 L 182.09961,34.5 h 3.46094 l -5.75977,-14.699219 c -0.3,-0.7 -0.90156,-1.101562 -1.60156,-1.101562 z M 185.56055,34.5 l 0.0391,0.09961 V 34.5 Z M 58.099609,21.800781 h 2.5 c 2.3,0 3.400391,0.698828 3.400391,2.298828 0,1.6 -1.100391,2.300782 -3.400391,2.300782 h -2.5 z m 119.701171,1.5 1.89844,5.199219 h -3.89844 z"
           transform="translate(-4.8000001,3.1999998)" />
      </g>
    </g>
  </g>
</svg>
